<?xml version="1.0" encoding="UTF-8"?>
<svg id="_レイヤー_1" data-name="レイヤー 1" xmlns="http://www.w3.org/2000/svg" viewBox="0 0 222 282.19">
  <defs>
    <style>
      .cls-1 {
        font-size: 42px;
      }

      .cls-1, .cls-2 {
        font-family: TrebuchetMS, 'Trebuchet MS';
      }

      .cls-1, .cls-2, .cls-3, .cls-4 {
        fill: #3e30fa;
      }

      .cls-2 {
        font-size: 32px;
      }

      .cls-4, .cls-5, .cls-6, .cls-7, .cls-8, .cls-9 {
        stroke-miterlimit: 10;
      }

      .cls-4, .cls-8 {
        stroke: #3e30fa;
      }

      .cls-5 {
        stroke-width: 10px;
      }

      .cls-5, .cls-6, .cls-7, .cls-8, .cls-9 {
        fill: none;
      }

      .cls-5, .cls-6, .cls-7, .cls-9 {
        stroke: #000;
      }

      .cls-6 {
        stroke-width: 12px;
      }

      .cls-7 {
        stroke-width: 9px;
      }

      .cls-8 {
        stroke-width: 3px;
      }

      .cls-9 {
        stroke-width: 4px;
      }
    </style>
  </defs>
  <g>
    <path class="cls-5" d="M201,58.5c-20.71,0-37.5-16.79-37.5-37.5"/>
    <path class="cls-5" d="M201,76c-30.38,0-55-24.62-55-55"/>
    <path class="cls-3" d="M176,21c0,13.81,11.19,25,25,25v-25h-25Z"/>
  </g>
  <g>
    <path class="cls-7" d="M21,163.5c20.71,0,37.5,16.79,37.5,37.5"/>
    <path class="cls-7" d="M21,146c30.38,0,55,24.62,55,55"/>
    <path class="cls-3" d="M46,201c0-13.81-11.19-25-25-25v25h25Z"/>
  </g>
  <text class="cls-1" transform="translate(21 52.77)"><tspan x="0" y="0">WEB</tspan></text>
  <text class="cls-2" transform="translate(89.29 201.52)"><tspan x="0" y="0">LEAGUE</tspan></text>
  <path d="M159.08,99.72c-19.72-42.83-76.6-42.67-96.15.19.2-1.34.46-2.68.69-4.05l1.13-3.98c2.75-8,7.67-15.18,14.21-20.66,28.4-23.99,74.53-8.81,80.11,28.49h0Z"/>
  <path d="M159.08,126.28c-5.58,37.32-51.74,52.48-80.11,28.49-6.55-5.47-11.47-12.66-14.21-20.66,0,0-1.13-3.98-1.13-3.98-.24-1.36-.5-2.7-.69-4.05,19.57,42.88,76.45,42.99,96.15.19h0Z"/>
  <line class="cls-9" x1="22.65" y1="113" x2="62.92" y2="113"/>
  <line class="cls-9" x1="159.08" y1="113" x2="199.35" y2="113"/>
  <polygon class="cls-4" points="111 93.61 92.71 106.89 99.7 128.39 122.3 128.39 129.29 106.89 111 93.61"/>
  <line class="cls-8" x1="111" y1="70.37" x2="111" y2="89.37"/>
  <line class="cls-8" x1="70.39" y1="99.31" x2="88.46" y2="105.18"/>
  <line class="cls-8" x1="151.61" y1="99.31" x2="133.54" y2="105.18"/>
  <line class="cls-8" x1="136.07" y1="148" x2="124.9" y2="132.63"/>
  <line class="cls-8" x1="85.93" y1="148.53" x2="97.1" y2="133.16"/>
  <path class="cls-6" d="M216,111v91.65c0,10.92-3.84,19.68-10.89,26.78-25.28,25.48-86.26,42.8-94.61,46.26-8.19-3.39-65.97-19.89-92.08-44.76-8.03-7.65-12.42-16.35-12.42-29.46v-90.48"/>
  <polyline class="cls-6" points="6 111 6 6 111 6 216 6 216 111"/>
</svg>